<?xml version="1.0" encoding="UTF-8"?>
<svg width="512" height="512" viewBox="0 0 512 512" fill="none" xmlns="http://www.w3.org/2000/svg" role="img" aria-labelledby="title desc">
  <title id="title">聚禧小铺</title>
  <desc id="desc">聚禧小铺蓝紫渐变 JX 品牌图标</desc>
  <defs>
    <linearGradient id="bg" x1="84" y1="58" x2="430" y2="456" gradientUnits="userSpaceOnUse">
      <stop stop-color="#2563EB"/>
      <stop offset="0.52" stop-color="#4F46E5"/>
      <stop offset="1" stop-color="#7C3AED"/>
    </linearGradient>
    <linearGradient id="shine" x1="132" y1="88" x2="392" y2="424" gradientUnits="userSpaceOnUse">
      <stop stop-color="#FFFFFF" stop-opacity="0.86"/>
      <stop offset="1" stop-color="#FFFFFF" stop-opacity="0.12"/>
    </linearGradient>
    <linearGradient id="gold" x1="314" y1="158" x2="395" y2="245" gradientUnits="userSpaceOnUse">
      <stop stop-color="#FDE68A"/>
      <stop offset="1" stop-color="#F59E0B"/>
    </linearGradient>
    <filter id="softShadow" x="46" y="52" width="420" height="420" filterUnits="userSpaceOnUse" color-interpolation-filters="sRGB">
      <feFlood flood-opacity="0" result="BackgroundImageFix"/>
      <feColorMatrix in="SourceAlpha" type="matrix" values="0 0 0 0 0 0 0 0 0 0 0 0 0 0 0 0 0 0 127 0" result="hardAlpha"/>
      <feOffset dy="24"/>
      <feGaussianBlur stdDeviation="28"/>
      <feColorMatrix type="matrix" values="0 0 0 0 0.07 0 0 0 0 0.12 0 0 0 0 0.32 0 0 0 0.3 0"/>
      <feBlend mode="normal" in2="BackgroundImageFix" result="effect1_dropShadow"/>
      <feBlend mode="normal" in="SourceGraphic" in2="effect1_dropShadow" result="shape"/>
    </filter>
    <filter id="markShadow" x="118" y="106" width="276" height="298" filterUnits="userSpaceOnUse" color-interpolation-filters="sRGB">
      <feFlood flood-opacity="0" result="BackgroundImageFix"/>
      <feColorMatrix in="SourceAlpha" type="matrix" values="0 0 0 0 0 0 0 0 0 0 0 0 0 0 0 0 0 0 127 0" result="hardAlpha"/>
      <feOffset dy="14"/>
      <feGaussianBlur stdDeviation="14"/>
      <feColorMatrix type="matrix" values="0 0 0 0 0.05 0 0 0 0 0.08 0 0 0 0 0.18 0 0 0 0.22 0"/>
      <feBlend mode="normal" in2="BackgroundImageFix" result="effect1_dropShadow"/>
      <feBlend mode="normal" in="SourceGraphic" in2="effect1_dropShadow" result="shape"/>
    </filter>
  </defs>

  <rect width="512" height="512" rx="128" fill="#F6F8FC"/>
  <g filter="url(#softShadow)">
    <rect x="62" y="62" width="388" height="388" rx="104" fill="url(#bg)"/>
    <rect x="84" y="84" width="344" height="344" rx="88" stroke="url(#shine)" stroke-width="2.5"/>
    <path d="M100 148C151 111 237 91 329 109C374 118 406 138 432 163V136C432 107.281 408.719 84 380 84H132C103.281 84 80 107.281 80 136V183C85.417 170.543 92.071 158.968 100 148Z" fill="white" fill-opacity="0.14"/>
    <path d="M97 357C179 404 309 398 417 291" stroke="white" stroke-opacity="0.16" stroke-width="26" stroke-linecap="round"/>
  </g>

  <g filter="url(#markShadow)">
    <path d="M164 173C164 151.461 181.461 134 203 134H309C330.539 134 348 151.461 348 173V189H316V175C316 169.477 311.523 165 306 165H206C200.477 165 196 169.477 196 175V189H164V173Z" fill="white" fill-opacity="0.9"/>
    <path d="M147.74 198.628C151.09 177.832 169.047 162.556 190.112 162.556H321.888C342.953 162.556 360.91 177.832 364.26 198.628L382.548 312.162C386.74 338.184 366.64 361.778 340.283 361.778H171.717C145.36 361.778 125.26 338.184 129.452 312.162L147.74 198.628Z" fill="white" fill-opacity="0.18"/>
    <path d="M153.848 202.372C156.682 184.405 172.17 171.176 190.359 171.176H321.641C339.83 171.176 355.318 184.405 358.152 202.372L375.906 314.941C379.436 337.326 362.128 357.556 339.467 357.556H172.533C149.872 357.556 132.564 337.326 136.094 314.941L153.848 202.372Z" stroke="white" stroke-opacity="0.42" stroke-width="4"/>

    <path d="M218 205V289C218 318.271 194.271 342 165 342" stroke="white" stroke-width="36" stroke-linecap="round" stroke-linejoin="round"/>
    <path d="M294 205L356 342" stroke="white" stroke-width="36" stroke-linecap="round"/>
    <path d="M358 205L292 342" stroke="white" stroke-width="36" stroke-linecap="round"/>
  </g>

  <path d="M361 129L374.197 153.803L399 167L374.197 180.197L361 205L347.803 180.197L323 167L347.803 153.803L361 129Z" fill="url(#gold)"/>
  <path d="M147 137L155.485 152.515L171 161L155.485 169.485L147 185L138.515 169.485L123 161L138.515 152.515L147 137Z" fill="#BFDBFE" fill-opacity="0.95"/>
</svg>
